<svg id="svg" version="1.1" xmlns="http://www.w3.org/2000/svg" xmlns:xlink="http://www.w3.org/1999/xlink" width="400" height="225.20182520182522" viewBox="0, 0, 400,225.20182520182522"><g id="svgg"><path id="path0" d="M0.000 112.583 L 0.000 225.167 200.000 225.167 L 400.000 225.167 400.000 112.583 L 400.000 0.000 200.000 0.000 L 0.000 0.000 0.000 112.583 M151.167 111.167 L 151.167 127.333 138.000 127.333 L 124.833 127.333 124.833 121.167 L 124.833 115.000 121.746 115.000 L 118.659 115.000 118.705 111.958 L 118.750 108.917 121.871 108.871 L 124.992 108.826 125.038 111.871 L 125.083 114.917 134.625 114.960 C 139.873 114.983,144.167 114.962,144.167 114.911 C 144.167 114.861,142.929 113.578,141.417 112.061 L 138.667 109.302 138.667 102.151 L 138.667 95.000 144.917 95.000 L 151.167 95.000 151.167 111.167 M263.000 99.337 L 263.000 101.841 260.208 101.796 L 257.417 101.750 257.371 99.292 L 257.324 96.833 260.162 96.833 L 263.000 96.833 263.000 99.337 M173.126 107.958 L 173.083 118.917 170.417 118.917 L 167.750 118.917 167.698 118.202 L 167.647 117.487 167.135 117.918 C 164.946 119.760,161.076 119.590,158.822 117.553 C 155.864 114.881,155.701 108.464,158.509 105.265 C 160.513 102.983,165.176 102.721,167.230 104.775 L 167.667 105.212 167.667 101.106 L 167.667 97.000 170.418 97.000 L 173.169 97.000 173.126 107.958 M205.486 103.925 C 207.784 105.176,208.073 106.223,208.079 113.333 L 208.083 118.917 205.417 118.917 L 202.750 118.917 202.667 113.833 C 202.576 108.326,202.557 108.210,201.640 107.736 C 200.651 107.225,199.084 107.794,198.455 108.893 C 198.312 109.142,198.225 110.707,198.167 114.083 L 198.083 118.917 195.455 118.963 C 193.439 118.998,192.810 118.959,192.755 118.796 C 192.716 118.679,192.662 115.227,192.634 111.125 L 192.583 103.667 195.117 103.667 L 197.650 103.667 197.762 104.655 L 197.874 105.644 198.288 105.152 C 199.766 103.396,203.381 102.779,205.486 103.925 M219.886 103.972 C 220.487 104.268,221.165 104.731,221.391 105.000 C 221.865 105.563,222.000 105.412,222.000 104.320 L 222.000 103.667 224.686 103.667 L 227.371 103.667 227.259 104.208 C 227.198 104.506,227.106 107.958,227.055 111.879 L 226.963 119.008 224.356 118.962 L 221.750 118.917 221.699 118.116 L 221.648 117.315 221.069 117.823 C 218.666 119.933,214.649 119.606,212.401 117.118 C 209.182 113.556,210.048 106.137,213.917 104.125 C 215.825 103.133,218.064 103.076,219.886 103.972 M241.717 103.574 C 242.665 103.912,243.584 104.610,243.931 105.256 L 244.241 105.831 244.996 105.093 C 247.759 102.390,252.397 102.842,253.771 105.948 C 254.412 107.397,254.515 108.588,254.464 113.917 L 254.417 118.917 251.750 118.917 L 249.083 118.917 248.994 113.750 C 248.892 107.797,248.813 107.500,247.325 107.500 C 245.429 107.500,245.100 108.441,245.000 114.167 L 244.917 118.917 242.250 118.917 L 239.583 118.917 239.500 113.742 C 239.427 109.193,239.382 108.514,239.126 108.125 C 238.529 107.214,236.907 107.443,236.094 108.553 C 235.770 108.997,235.745 109.306,235.667 113.970 L 235.583 118.917 232.955 118.963 C 230.938 118.998,230.311 118.959,230.259 118.796 C 230.222 118.679,230.157 115.227,230.115 111.125 L 230.037 103.667 232.590 103.667 L 235.143 103.667 235.259 104.597 L 235.375 105.528 236.063 104.866 C 237.524 103.457,239.880 102.919,241.717 103.574 M276.083 103.575 C 277.148 103.828,278.374 104.338,278.908 104.751 C 279.194 104.972,278.270 108.035,277.731 108.650 C 277.699 108.686,277.203 108.462,276.628 108.152 C 273.656 106.547,271.182 107.852,271.030 111.106 C 270.873 114.488,273.669 116.096,276.710 114.373 L 277.669 113.829 278.098 114.790 C 279.430 117.771,279.443 117.688,277.540 118.519 C 273.593 120.242,268.250 118.766,266.338 115.425 C 262.630 108.944,268.520 101.782,276.083 103.575 M181.751 107.335 L 185.417 111.004 185.500 107.377 L 185.583 103.750 188.375 103.704 C 189.910 103.679,191.167 103.689,191.167 103.726 C 191.167 103.786,190.963 104.255,189.999 106.417 C 189.595 107.322,187.810 111.373,186.915 113.417 C 183.558 121.078,183.102 121.926,181.610 123.272 C 179.927 124.790,175.715 126.115,175.455 125.208 C 175.409 125.048,175.141 124.132,174.859 123.174 C 174.577 122.216,174.368 121.410,174.394 121.384 C 174.421 121.357,174.839 121.260,175.324 121.168 C 177.282 120.797,178.726 119.864,179.238 118.638 C 179.529 117.941,179.962 119.089,175.666 109.167 C 174.455 106.371,173.427 103.990,173.381 103.875 C 173.317 103.714,173.843 103.667,175.692 103.667 L 178.086 103.667 181.751 107.335 M262.833 111.333 L 262.833 119.000 260.167 119.000 L 257.500 119.000 257.500 111.333 L 257.500 103.667 260.167 103.667 L 262.833 103.667 262.833 111.333 M163.370 107.875 C 160.702 109.722,161.838 115.012,164.900 114.994 C 167.004 114.982,167.716 113.979,167.637 111.137 C 167.563 108.458,166.828 107.500,164.848 107.500 C 164.149 107.500,163.775 107.595,163.370 107.875 M217.325 107.876 C 216.158 108.663,215.614 111.110,216.168 113.087 C 216.890 115.667,220.537 115.756,221.403 113.215 C 222.646 109.566,219.986 106.082,217.325 107.876 M235.500 121.684 C 235.500 122.910,235.527 123.024,235.792 122.906 C 237.956 121.945,239.000 122.978,239.000 126.078 L 239.000 128.000 238.417 128.000 L 237.833 128.000 237.833 126.204 C 237.833 124.224,237.633 123.667,236.921 123.667 C 235.814 123.667,235.500 124.272,235.500 126.408 L 235.500 128.000 234.917 128.000 L 234.333 128.000 234.333 124.278 C 234.333 120.276,234.323 120.333,235.028 120.333 L 235.500 120.333 235.500 121.684 M253.461 124.208 L 253.506 128.000 252.920 128.000 L 252.333 128.000 252.333 124.156 L 252.333 120.312 252.875 120.364 L 253.417 120.417 253.461 124.208 M223.583 121.250 L 223.583 121.750 222.375 121.799 L 221.167 121.848 221.167 124.924 L 221.167 128.000 220.583 128.000 L 220.000 128.000 220.000 124.917 L 220.000 121.833 218.750 121.833 L 217.500 121.833 217.500 121.246 L 217.500 120.659 220.542 120.705 L 223.583 120.750 223.583 121.250 M268.167 121.333 L 268.167 122.000 267.500 122.000 L 266.833 122.000 266.833 121.333 L 266.833 120.667 267.500 120.667 L 268.167 120.667 268.167 121.333 M227.184 123.047 C 227.784 123.451,228.141 124.214,228.157 125.125 L 228.167 125.667 226.333 125.667 C 224.438 125.667,224.333 125.711,224.680 126.358 C 225.114 127.170,226.001 127.242,227.535 126.591 C 227.751 126.499,227.846 126.574,227.928 126.904 C 228.353 128.596,224.420 128.489,223.612 126.786 C 222.411 124.257,224.981 121.567,227.184 123.047 M232.766 122.936 C 233.390 123.231,233.409 123.279,233.167 123.917 L 233.000 124.356 232.516 124.011 C 231.393 123.212,230.325 123.753,230.208 125.181 C 230.081 126.723,231.026 127.458,232.299 126.808 C 233.265 126.316,233.792 127.192,232.887 127.785 C 231.728 128.544,229.901 128.033,229.276 126.776 C 228.023 124.256,230.291 121.761,232.766 122.936 M241.439 122.914 C 241.523 123.133,241.575 123.133,241.887 122.914 C 242.340 122.597,243.546 122.596,244.157 122.912 C 244.822 123.256,245.000 123.930,245.000 126.108 L 245.000 128.000 244.417 128.000 L 243.833 128.000 243.833 126.204 C 243.833 124.224,243.633 123.667,242.921 123.667 C 241.787 123.667,241.443 124.340,241.524 126.401 L 241.583 127.917 240.958 127.968 L 240.333 128.020 240.333 125.343 L 240.333 122.667 240.839 122.667 C 241.132 122.667,241.384 122.771,241.439 122.914 M250.017 123.045 C 250.873 123.617,251.202 124.381,251.115 125.598 C 250.857 129.207,246.169 128.975,246.167 125.353 C 246.166 123.098,248.237 121.856,250.017 123.045 M258.500 123.042 C 260.709 124.550,259.695 128.054,257.046 128.067 C 255.095 128.077,253.897 125.742,254.892 123.868 C 255.522 122.679,257.354 122.260,258.500 123.042 M264.008 122.921 C 264.449 123.149,264.500 123.149,264.500 122.921 C 264.500 122.745,264.667 122.667,265.042 122.667 L 265.583 122.667 265.525 125.625 C 265.460 128.945,265.328 129.488,264.480 129.927 C 263.443 130.464,260.833 130.072,260.833 129.380 C 260.833 128.680,261.142 128.490,261.712 128.837 C 262.939 129.585,264.333 129.131,264.333 127.982 L 264.333 127.539 263.651 127.774 C 261.893 128.380,260.476 127.241,260.476 125.223 C 260.476 123.214,262.289 122.032,264.008 122.921 M268.129 125.375 L 268.175 128.000 267.588 128.000 L 267.000 128.000 267.000 125.323 L 267.000 122.646 267.542 122.698 L 268.083 122.750 268.129 125.375 M272.993 122.939 C 273.648 123.326,274.000 124.012,274.000 124.901 L 274.000 125.667 272.250 125.667 C 270.391 125.667,270.258 125.736,270.663 126.493 C 271.013 127.148,272.560 127.239,273.273 126.648 C 273.554 126.415,274.000 126.801,274.000 127.278 C 274.000 128.016,271.242 128.370,270.398 127.740 C 267.718 125.740,270.143 121.256,272.993 122.939 M278.422 122.908 C 279.043 123.168,279.188 123.637,278.757 123.994 C 278.565 124.154,278.436 124.141,278.137 123.931 C 277.647 123.588,276.606 123.588,276.322 123.931 C 275.978 124.345,276.332 124.706,277.293 124.922 C 279.247 125.362,279.805 126.721,278.446 127.733 C 277.591 128.369,274.833 128.022,274.833 127.278 C 274.833 126.683,275.253 126.439,275.733 126.754 C 275.983 126.918,276.516 127.059,276.919 127.068 C 278.363 127.099,278.353 126.246,276.905 125.916 C 275.463 125.587,274.996 125.170,275.004 124.219 C 275.014 122.934,276.824 122.240,278.422 122.908 M225.545 123.631 C 225.190 123.686,224.500 124.385,224.500 124.689 C 224.500 124.768,225.063 124.833,225.750 124.833 C 227.084 124.833,227.223 124.726,226.755 124.058 C 226.486 123.673,226.113 123.542,225.545 123.631 M271.215 123.753 C 270.760 123.945,270.500 124.282,270.500 124.680 C 270.500 124.764,271.025 124.833,271.667 124.833 C 272.681 124.833,272.833 124.794,272.833 124.532 C 272.833 123.793,272.035 123.408,271.215 123.753 M247.679 124.106 C 246.844 125.167,247.475 127.070,248.650 127.037 C 249.339 127.017,249.620 126.778,249.848 126.015 C 250.370 124.276,248.700 122.807,247.679 124.106 M256.179 124.106 C 255.700 124.715,255.697 126.124,256.173 126.635 C 256.842 127.353,258.016 127.046,258.338 126.070 C 258.902 124.360,257.198 122.810,256.179 124.106 M262.076 124.076 C 261.124 125.027,261.771 126.833,263.064 126.833 C 263.931 126.833,264.391 126.179,264.288 125.094 C 264.158 123.731,262.969 123.183,262.076 124.076 M281.500 127.333 L 281.500 128.000 280.750 128.000 L 280.000 128.000 280.000 127.333 L 280.000 126.667 280.750 126.667 L 281.500 126.667 281.500 127.333 " stroke="none" fill="#fbfbfb" fill-rule="evenodd"></path><path id="path1" d="M138.667 102.157 L 138.667 109.148 141.542 112.032 L 144.417 114.917 134.708 114.960 L 125.000 115.003 125.000 121.168 L 125.000 127.333 138.000 127.333 L 151.000 127.333 151.000 111.250 L 151.000 95.167 144.833 95.167 L 138.667 95.167 138.667 102.157 M167.833 101.167 C 167.833 103.458,167.800 105.333,167.759 105.333 C 167.717 105.333,167.474 105.135,167.217 104.893 C 165.140 102.935,160.892 103.088,158.801 105.196 C 155.494 108.529,155.988 115.575,159.705 118.078 C 161.959 119.596,165.236 119.413,167.236 117.657 L 167.814 117.149 167.866 117.949 L 167.917 118.750 170.458 118.796 L 173.000 118.842 173.000 107.921 L 173.000 97.000 170.417 97.000 L 167.833 97.000 167.833 101.167 M257.500 99.333 L 257.500 101.667 260.250 101.667 L 263.000 101.667 263.000 99.333 L 263.000 97.000 260.250 97.000 L 257.500 97.000 257.500 99.333 M200.759 103.767 C 199.771 104.081,198.603 104.855,198.210 105.454 L 197.925 105.889 197.813 105.486 C 197.751 105.265,197.692 104.802,197.683 104.458 L 197.667 103.833 195.066 103.833 C 192.649 103.833,192.474 103.854,192.596 104.125 C 192.668 104.285,192.758 107.662,192.797 111.629 L 192.866 118.842 195.391 118.796 L 197.917 118.750 198.000 113.970 C 198.093 108.651,198.075 108.730,199.332 107.875 C 200.062 107.378,201.437 107.355,202.040 107.829 C 202.724 108.367,202.833 109.255,202.833 114.245 L 202.833 118.842 205.375 118.796 L 207.917 118.750 207.915 113.250 C 207.914 107.110,207.831 106.512,206.789 105.145 C 205.680 103.691,202.954 103.068,200.759 103.767 M215.146 103.742 C 209.596 105.272,208.898 115.747,214.169 118.418 C 216.417 119.557,219.607 119.207,221.090 117.660 C 221.734 116.988,221.833 117.033,221.833 118.000 L 221.833 118.833 224.417 118.833 L 227.000 118.833 227.001 112.458 C 227.002 108.952,227.050 105.577,227.109 104.958 L 227.215 103.833 224.703 103.833 L 222.191 103.833 222.076 104.750 C 221.956 105.715,221.793 105.882,221.503 105.340 C 220.752 103.935,217.453 103.106,215.146 103.742 M237.946 103.770 C 237.400 103.938,236.852 104.298,236.239 104.892 L 235.336 105.766 235.255 105.258 C 235.210 104.979,235.153 104.563,235.128 104.333 L 235.083 103.917 232.544 103.871 L 230.005 103.825 230.085 104.537 C 230.287 106.324,230.319 107.451,230.326 112.963 L 230.333 118.842 232.875 118.796 L 235.417 118.750 235.500 114.000 C 235.602 108.213,235.862 107.503,237.886 107.501 C 239.573 107.499,239.667 107.835,239.667 113.911 L 239.667 118.833 242.234 118.833 L 244.802 118.833 244.868 114.208 C 244.952 108.265,245.238 107.500,247.372 107.500 C 249.048 107.500,249.162 107.928,249.165 114.213 L 249.167 118.842 251.708 118.796 L 254.250 118.750 254.296 113.833 C 254.356 107.455,254.152 106.170,252.857 104.776 C 251.074 102.858,246.896 103.135,244.993 105.298 C 244.358 106.019,244.293 106.053,244.127 105.756 C 243.037 103.808,240.488 102.989,237.946 103.770 M271.000 103.802 C 266.225 105.051,263.991 110.567,266.370 115.238 C 268.195 118.820,273.591 120.183,277.958 118.165 C 279.192 117.595,279.181 117.677,278.323 115.644 L 277.646 114.037 276.649 114.535 C 274.171 115.773,271.715 115.075,271.085 112.954 C 269.888 108.923,272.795 106.176,276.417 107.916 C 276.967 108.181,277.485 108.401,277.568 108.407 C 277.651 108.412,278.035 107.648,278.423 106.709 L 279.127 105.002 278.258 104.504 C 276.569 103.538,273.242 103.216,271.000 103.802 M173.730 104.375 C 174.034 105.079,178.091 114.450,178.975 116.491 L 179.657 118.066 179.289 118.804 C 178.665 120.052,177.186 120.973,175.328 121.270 C 174.423 121.415,174.427 121.384,175.067 123.493 C 175.757 125.765,175.490 125.572,177.350 125.150 C 181.290 124.256,182.696 122.793,185.252 116.926 C 186.251 114.632,187.280 112.289,189.244 107.833 C 189.951 106.229,190.636 104.673,190.767 104.375 L 191.004 103.833 188.336 103.833 L 185.667 103.833 185.667 107.624 L 185.667 111.414 181.874 107.624 L 178.081 103.833 175.788 103.833 L 173.496 103.833 173.730 104.375 M257.540 111.292 L 257.583 118.750 260.208 118.796 L 262.833 118.842 262.833 111.338 L 262.833 103.833 260.165 103.833 L 257.497 103.833 257.540 111.292 M166.055 107.561 C 168.266 108.485,168.562 113.405,166.489 114.777 C 164.236 116.268,161.918 114.523,161.917 111.333 C 161.916 108.246,163.732 106.590,166.055 107.561 M220.250 107.711 C 222.408 108.916,222.344 113.791,220.155 114.923 C 217.415 116.340,214.986 113.143,216.007 109.464 C 216.511 107.650,218.597 106.788,220.250 107.711 " stroke="none" fill="#0b344b" fill-rule="evenodd"></path><path id="path2" d="M257.406 97.050 C 257.360 97.170,257.346 98.239,257.375 99.425 L 257.428 101.583 257.464 99.296 L 257.500 97.008 260.292 96.958 L 263.083 96.908 260.286 96.871 C 258.115 96.842,257.471 96.882,257.406 97.050 M173.079 107.833 C 173.079 113.837,173.099 116.294,173.125 113.292 C 173.150 110.290,173.150 105.377,173.125 102.375 C 173.099 99.373,173.079 101.829,173.079 107.833 M175.750 103.790 L 178.083 103.841 181.000 106.712 L 183.917 109.583 181.002 106.625 L 178.087 103.667 175.752 103.703 L 173.417 103.740 175.750 103.790 M187.133 103.791 C 187.894 103.822,189.094 103.822,189.800 103.790 C 190.506 103.759,189.883 103.734,188.417 103.734 C 186.950 103.734,186.372 103.760,187.133 103.791 M193.708 103.791 C 194.419 103.822,195.581 103.822,196.292 103.791 C 197.002 103.759,196.421 103.734,195.000 103.734 C 193.579 103.734,192.998 103.759,193.708 103.791 M222.917 103.779 C 224.913 103.899,227.296 103.907,227.225 103.792 C 227.182 103.723,226.008 103.681,224.615 103.697 C 223.223 103.714,222.458 103.751,222.917 103.779 M230.750 103.779 C 232.746 103.899,235.130 103.907,235.058 103.792 C 235.015 103.723,233.841 103.681,232.448 103.697 C 231.056 103.714,230.292 103.751,230.750 103.779 M258.792 103.791 C 259.548 103.822,260.785 103.822,261.542 103.791 C 262.298 103.760,261.679 103.735,260.167 103.735 C 258.654 103.735,258.035 103.760,258.792 103.791 M192.742 112.333 C 192.742 115.862,192.764 117.306,192.791 115.542 C 192.818 113.777,192.818 110.890,192.791 109.125 C 192.764 107.360,192.742 108.804,192.742 112.333 M230.242 112.833 C 230.242 116.179,230.264 117.548,230.291 115.875 C 230.319 114.202,230.319 111.465,230.291 109.792 C 230.264 108.119,230.242 109.487,230.242 112.833 M273.960 107.451 C 274.168 107.491,274.468 107.490,274.627 107.448 C 274.786 107.406,274.617 107.374,274.250 107.375 C 273.883 107.377,273.753 107.411,273.960 107.451 M118.833 112.000 L 118.833 115.000 121.917 115.000 L 125.000 115.000 125.000 112.000 L 125.000 109.000 121.917 109.000 L 118.833 109.000 118.833 112.000 M249.074 114.000 C 249.074 116.704,249.097 117.810,249.125 116.458 C 249.153 115.106,249.153 112.894,249.125 111.542 C 249.097 110.190,249.074 111.296,249.074 114.000 M202.740 114.083 C 202.740 116.742,202.763 117.806,202.791 116.448 C 202.819 115.090,202.819 112.915,202.791 111.615 C 202.763 110.314,202.740 111.425,202.740 114.083 M210.542 110.417 C 210.544 110.783,210.578 110.914,210.618 110.706 C 210.658 110.499,210.656 110.199,210.615 110.040 C 210.573 109.880,210.540 110.050,210.542 110.417 M265.385 111.250 C 265.386 111.800,265.417 112.005,265.454 111.705 C 265.491 111.406,265.490 110.956,265.452 110.705 C 265.414 110.455,265.384 110.700,265.385 111.250 M244.906 114.583 C 244.905 116.875,244.929 117.836,244.958 116.718 C 244.987 115.600,244.987 113.725,244.958 112.551 C 244.929 111.377,244.906 112.292,244.906 114.583 M210.542 112.083 C 210.544 112.450,210.578 112.580,210.618 112.373 C 210.658 112.166,210.656 111.866,210.615 111.706 C 210.573 111.547,210.540 111.717,210.542 112.083 M267.000 116.385 C 267.000 116.414,267.244 116.658,267.542 116.927 L 268.083 117.417 267.594 116.875 C 267.138 116.370,267.000 116.257,267.000 116.385 M212.667 117.417 C 212.978 117.737,213.270 118.000,213.315 118.000 C 213.361 118.000,213.144 117.737,212.833 117.417 C 212.522 117.096,212.230 116.833,212.185 116.833 C 212.139 116.833,212.356 117.096,212.667 117.417 M221.714 117.917 C 221.716 118.375,221.748 118.543,221.786 118.289 C 221.825 118.036,221.824 117.661,221.784 117.456 C 221.744 117.251,221.713 117.458,221.714 117.917 M234.500 124.261 L 234.500 128.022 234.958 127.969 L 235.417 127.917 235.500 126.028 C 235.589 124.006,235.686 123.794,236.626 123.558 C 237.563 123.323,237.818 123.816,237.870 125.959 L 237.917 127.917 238.375 127.969 L 238.833 128.022 238.833 125.917 C 238.833 122.957,237.932 121.966,236.106 122.918 C 235.843 123.055,235.600 123.167,235.564 123.167 C 235.529 123.167,235.500 122.567,235.500 121.833 L 235.500 120.500 235.000 120.500 L 234.500 120.500 234.500 124.261 M252.372 124.208 L 252.417 127.917 252.875 127.969 L 253.333 128.022 253.333 124.261 L 253.333 120.500 252.830 120.500 L 252.327 120.500 252.372 124.208 M217.667 121.250 C 217.667 121.655,217.700 121.667,218.833 121.667 L 220.000 121.667 220.000 124.833 L 220.000 128.000 220.496 128.000 L 220.993 128.000 221.038 124.875 L 221.083 121.750 222.292 121.701 C 223.450 121.654,223.500 121.635,223.500 121.243 L 223.500 120.833 220.583 120.833 L 217.667 120.833 217.667 121.250 M267.000 121.333 C 267.000 121.794,267.046 121.833,267.583 121.833 C 268.120 121.833,268.167 121.794,268.167 121.333 C 268.167 120.873,268.120 120.833,267.583 120.833 C 267.046 120.833,267.000 120.873,267.000 121.333 M225.000 122.853 C 222.996 123.650,222.826 126.957,224.748 127.760 C 226.135 128.339,228.366 127.730,227.782 126.932 C 227.591 126.672,227.533 126.670,227.079 126.906 C 226.090 127.422,224.947 127.141,224.591 126.295 C 224.268 125.527,224.325 125.500,226.260 125.500 L 228.000 125.500 227.999 124.875 C 227.998 123.310,226.459 122.273,225.000 122.853 M230.331 122.971 C 228.686 123.832,228.579 126.572,230.150 127.622 C 231.241 128.350,233.626 127.858,233.166 126.999 C 232.953 126.602,232.989 126.605,232.394 126.916 C 230.893 127.698,229.589 126.333,230.166 124.584 C 230.495 123.589,231.359 123.288,232.356 123.822 L 232.957 124.144 233.145 123.731 C 233.516 122.917,231.483 122.368,230.331 122.971 M242.225 122.832 C 242.029 122.912,241.818 123.057,241.757 123.155 C 241.596 123.417,241.333 123.372,241.333 123.083 C 241.333 122.915,241.165 122.833,240.814 122.833 C 240.357 122.833,240.306 122.878,240.395 123.208 C 240.450 123.415,240.496 124.577,240.498 125.792 L 240.500 128.000 241.000 128.000 L 241.500 128.000 241.500 126.239 C 241.500 124.225,241.604 123.935,242.422 123.665 C 243.582 123.282,243.814 123.650,243.870 125.959 L 243.917 127.917 244.417 127.917 L 244.917 127.917 244.964 126.290 C 245.052 123.289,244.093 122.079,242.225 122.832 M247.584 122.929 C 245.789 123.865,245.695 126.922,247.435 127.747 C 249.260 128.614,250.998 127.501,250.999 125.464 C 251.001 123.336,249.269 122.051,247.584 122.929 M256.012 122.959 C 253.051 124.468,255.164 129.050,258.230 127.769 C 260.524 126.810,259.593 122.667,257.083 122.667 C 256.808 122.667,256.326 122.798,256.012 122.959 M261.845 122.959 C 260.147 123.824,260.098 126.788,261.768 127.581 C 262.430 127.895,263.286 127.896,263.833 127.583 C 264.470 127.219,264.551 127.277,264.451 128.023 C 264.286 129.255,263.324 129.640,261.941 129.028 L 261.168 128.686 260.980 129.038 C 260.464 130.002,263.499 130.560,264.644 129.711 C 265.339 129.196,265.480 128.502,265.491 125.542 L 265.500 122.833 265.000 122.833 C 264.684 122.833,264.500 122.919,264.500 123.065 C 264.500 123.249,264.370 123.231,263.881 122.982 C 263.113 122.590,262.580 122.584,261.845 122.959 M270.669 122.975 C 268.962 123.891,268.862 126.831,270.509 127.671 C 271.936 128.399,274.282 127.800,273.686 126.859 C 273.569 126.674,273.455 126.681,273.030 126.901 C 272.032 127.417,270.836 127.144,270.495 126.322 C 270.189 125.583,270.369 125.500,272.281 125.500 L 274.043 125.500 273.933 124.816 C 273.641 122.988,272.181 122.165,270.669 122.975 M276.083 122.898 C 274.471 123.600,274.870 125.450,276.699 125.753 C 277.689 125.917,278.000 126.113,278.000 126.571 C 278.000 127.209,276.711 127.405,275.763 126.911 C 275.373 126.707,275.249 126.699,275.140 126.870 C 274.520 127.847,277.111 128.452,278.350 127.620 C 279.638 126.755,279.154 125.530,277.329 125.034 C 276.058 124.688,275.730 124.299,276.310 123.823 C 276.807 123.416,277.438 123.413,278.097 123.815 C 278.597 124.120,279.000 123.940,279.000 123.411 C 279.000 122.912,276.899 122.542,276.083 122.898 M267.037 125.375 L 267.083 127.917 267.542 127.969 L 268.000 128.022 268.000 125.428 L 268.000 122.833 267.496 122.833 L 266.991 122.833 267.037 125.375 M226.634 123.792 C 227.517 124.555,227.306 124.833,225.845 124.833 C 224.338 124.833,224.160 124.658,224.909 123.909 C 225.395 123.423,226.148 123.372,226.634 123.792 M249.513 123.987 C 250.184 124.658,250.225 126.124,249.591 126.758 C 248.704 127.644,247.370 127.020,247.215 125.647 C 247.019 123.908,248.421 122.895,249.513 123.987 M258.125 124.099 C 258.772 124.823,258.522 126.764,257.743 127.063 C 256.983 127.355,256.087 126.988,255.842 126.285 C 255.143 124.280,256.837 122.657,258.125 124.099 M263.667 123.750 C 264.972 124.425,264.483 127.000,263.050 127.000 C 261.448 127.000,260.919 124.527,262.352 123.733 C 262.870 123.445,263.082 123.448,263.667 123.750 M272.614 123.862 C 273.391 124.592,273.155 124.833,271.667 124.833 C 270.179 124.833,270.077 124.731,270.821 123.987 C 271.409 123.399,272.072 123.353,272.614 123.862 M280.167 127.417 C 280.167 127.972,280.194 128.000,280.750 128.000 C 281.306 128.000,281.333 127.972,281.333 127.417 C 281.333 126.861,281.306 126.833,280.750 126.833 C 280.194 126.833,280.167 126.861,280.167 127.417 " stroke="none" fill="#8294a1" fill-rule="evenodd"></path><path id="path3" d="M144.874 95.124 L 150.998 95.171 151.042 111.252 L 151.086 127.333 151.085 111.208 L 151.083 95.083 144.917 95.080 L 138.750 95.077 144.874 95.124 M120.384 108.958 C 121.282 108.988,122.707 108.988,123.550 108.957 C 124.393 108.927,123.658 108.903,121.917 108.903 C 120.175 108.903,119.485 108.928,120.384 108.958 M184.493 110.208 C 185.184 110.944,185.333 111.077,185.333 110.951 C 185.333 110.925,184.977 110.568,184.542 110.160 L 183.750 109.417 184.493 110.208 M198.072 114.000 C 198.072 116.246,198.096 117.165,198.125 116.042 C 198.153 114.919,198.153 113.081,198.125 111.958 C 198.096 110.835,198.072 111.754,198.072 114.000 M234.405 124.167 C 234.405 126.229,234.429 127.073,234.458 126.042 C 234.487 125.010,234.487 123.323,234.458 122.292 C 234.429 121.260,234.405 122.104,234.405 124.167 M253.405 124.167 C 253.405 126.229,253.429 127.073,253.458 126.042 C 253.487 125.010,253.487 123.323,253.458 122.292 C 253.429 121.260,253.405 122.104,253.405 124.167 M217.564 120.907 C 217.513 121.039,217.507 121.283,217.550 121.449 C 217.601 121.647,217.635 121.595,217.647 121.296 L 217.667 120.841 220.625 120.791 L 223.583 120.742 220.620 120.704 C 218.168 120.673,217.640 120.708,217.564 120.907 M266.898 120.905 C 266.708 121.399,266.906 121.916,267.294 121.939 C 267.608 121.957,267.615 121.948,267.336 121.886 C 266.661 121.734,266.890 120.865,267.625 120.788 L 268.250 120.723 267.620 120.695 C 267.207 120.676,266.958 120.749,266.898 120.905 M221.069 124.917 C 221.070 126.658,221.094 127.348,221.124 126.450 C 221.154 125.551,221.154 124.126,221.124 123.283 C 221.094 122.440,221.069 123.175,221.069 124.917 M238.897 126.083 C 238.897 127.183,238.924 127.612,238.957 127.035 C 238.990 126.459,238.989 125.559,238.956 125.035 C 238.923 124.512,238.897 124.983,238.897 126.083 M230.039 125.333 C 230.039 125.654,230.073 125.785,230.115 125.625 C 230.157 125.465,230.157 125.202,230.115 125.042 C 230.073 124.881,230.039 125.013,230.039 125.333 M251.039 125.333 C 251.039 125.654,251.073 125.785,251.115 125.625 C 251.157 125.465,251.157 125.202,251.115 125.042 C 251.073 124.881,251.039 125.013,251.039 125.333 M224.442 125.625 C 224.399 125.694,224.938 125.730,225.640 125.705 C 227.880 125.625,228.136 125.557,226.302 125.528 C 225.321 125.513,224.485 125.556,224.442 125.625 M271.381 125.623 C 271.912 125.657,272.737 125.656,273.214 125.623 C 273.692 125.589,273.258 125.562,272.250 125.562 C 271.242 125.563,270.851 125.590,271.381 125.623 M280.460 126.785 C 280.668 126.824,280.968 126.823,281.127 126.781 C 281.286 126.739,281.117 126.707,280.750 126.709 C 280.383 126.711,280.253 126.745,280.460 126.785 M264.372 127.833 C 264.372 128.154,264.406 128.285,264.448 128.125 C 264.490 127.965,264.490 127.702,264.448 127.542 C 264.406 127.381,264.372 127.513,264.372 127.833 " stroke="none" fill="#93adba" fill-rule="evenodd"></path><path id="path4" d="M167.739 101.083 C 167.739 103.375,167.762 104.336,167.791 103.218 C 167.820 102.100,167.820 100.225,167.791 99.051 C 167.763 97.877,167.739 98.792,167.739 101.083 M258.883 101.791 C 259.690 101.821,260.965 101.821,261.717 101.791 C 262.468 101.760,261.808 101.735,260.250 101.735 C 258.692 101.735,258.077 101.760,258.883 101.791 M185.571 107.500 C 185.571 109.563,185.595 110.406,185.624 109.375 C 185.654 108.344,185.654 106.656,185.624 105.625 C 185.595 104.594,185.571 105.438,185.571 107.500 M198.406 105.042 L 197.917 105.583 198.458 105.094 C 198.963 104.638,199.077 104.500,198.948 104.500 C 198.919 104.500,198.675 104.744,198.406 105.042 M158.573 105.208 L 158.083 105.750 158.625 105.260 C 158.923 104.991,159.167 104.748,159.167 104.719 C 159.167 104.590,159.029 104.703,158.573 105.208 M230.053 106.167 C 230.053 106.763,230.084 107.006,230.121 106.708 C 230.158 106.410,230.158 105.923,230.121 105.625 C 230.084 105.327,230.053 105.571,230.053 106.167 M254.373 113.537 L 254.333 118.825 251.708 118.875 L 249.083 118.926 251.714 118.963 C 253.703 118.991,254.363 118.949,254.424 118.790 C 254.469 118.675,254.484 116.256,254.458 113.415 L 254.412 108.250 254.373 113.537 M118.736 112.000 C 118.736 113.696,118.761 114.390,118.791 113.542 C 118.821 112.694,118.821 111.306,118.791 110.458 C 118.761 109.610,118.736 110.304,118.736 112.000 M239.579 114.125 L 239.583 118.917 242.209 118.923 L 244.834 118.930 242.253 118.877 L 239.672 118.825 239.624 114.079 L 239.576 109.333 239.579 114.125 M208.039 114.204 L 208.000 118.825 205.375 118.875 L 202.750 118.926 205.380 118.963 C 207.375 118.991,208.030 118.949,208.091 118.789 C 208.136 118.673,208.151 116.554,208.125 114.081 L 208.078 109.583 208.039 114.204 M235.539 114.371 L 235.500 118.825 232.875 118.875 L 230.250 118.926 232.880 118.963 C 234.877 118.991,235.530 118.949,235.591 118.789 C 235.636 118.673,235.651 116.629,235.625 114.247 L 235.577 109.917 235.539 114.371 M167.723 111.333 C 167.723 112.021,167.752 112.302,167.788 111.958 C 167.824 111.615,167.824 111.052,167.788 110.708 C 167.752 110.365,167.723 110.646,167.723 111.333 M215.883 111.333 C 215.883 111.837,215.915 112.044,215.953 111.792 C 215.991 111.540,215.991 111.127,215.953 110.875 C 215.915 110.623,215.883 110.829,215.883 111.333 M270.875 111.250 C 270.877 111.617,270.911 111.747,270.951 111.540 C 270.991 111.332,270.990 111.032,270.948 110.873 C 270.906 110.714,270.874 110.883,270.875 111.250 M124.909 115.042 C 124.865 115.157,124.849 117.989,124.873 121.334 L 124.917 127.417 125.000 121.125 C 125.046 117.664,125.062 114.833,125.036 114.833 C 125.011 114.833,124.953 114.927,124.909 115.042 M164.544 115.120 C 164.797 115.158,165.172 115.157,165.377 115.117 C 165.582 115.078,165.375 115.046,164.917 115.048 C 164.458 115.049,164.291 115.081,164.544 115.120 M218.377 115.120 C 218.631 115.158,219.006 115.157,219.211 115.117 C 219.416 115.078,219.208 115.046,218.750 115.048 C 218.292 115.049,218.124 115.081,218.377 115.120 M167.733 118.083 L 167.750 118.917 170.333 118.923 L 172.917 118.929 170.384 118.877 L 167.851 118.825 167.784 118.037 L 167.716 117.250 167.733 118.083 M195.417 118.833 L 192.750 118.930 195.365 118.965 C 196.968 118.986,198.020 118.935,198.083 118.833 C 198.140 118.742,198.163 118.683,198.135 118.702 C 198.107 118.721,196.883 118.780,195.417 118.833 M223.133 118.957 C 223.894 118.988,225.094 118.988,225.800 118.957 C 226.506 118.926,225.883 118.901,224.417 118.901 C 222.950 118.901,222.372 118.927,223.133 118.957 M258.792 118.957 C 259.548 118.988,260.785 118.988,261.542 118.957 C 262.298 118.926,261.679 118.901,260.167 118.901 C 258.654 118.901,258.035 118.926,258.792 118.957 M234.708 120.448 C 234.869 120.490,235.131 120.490,235.292 120.448 C 235.452 120.406,235.321 120.372,235.000 120.372 C 234.679 120.372,234.548 120.406,234.708 120.448 M252.542 120.448 C 252.702 120.490,252.965 120.490,253.125 120.448 C 253.285 120.406,253.154 120.372,252.833 120.372 C 252.512 120.372,252.381 120.406,252.542 120.448 M223.519 121.201 C 223.500 121.642,223.474 121.653,222.292 121.710 L 221.083 121.767 222.297 121.800 C 223.571 121.835,223.788 121.712,223.617 121.051 C 223.565 120.851,223.532 120.901,223.519 121.201 M218.129 121.789 C 218.521 121.824,219.121 121.824,219.463 121.788 C 219.804 121.752,219.483 121.723,218.750 121.724 C 218.017 121.724,217.737 121.754,218.129 121.789 M240.333 122.732 C 240.333 122.768,240.591 122.827,240.905 122.864 C 241.219 122.900,241.440 122.871,241.395 122.799 C 241.314 122.668,240.333 122.606,240.333 122.732 M264.948 122.786 C 265.268 122.826,265.509 122.965,265.554 123.135 C 265.606 123.335,265.634 123.308,265.647 123.042 C 265.664 122.712,265.592 122.670,265.042 122.693 C 264.441 122.719,264.438 122.723,264.948 122.786 M267.496 122.760 L 267.992 122.854 268.044 125.385 L 268.096 127.917 268.090 125.333 L 268.083 122.750 267.542 122.708 C 267.015 122.668,267.014 122.669,267.496 122.760 M240.399 125.833 C 240.399 127.071,240.425 127.577,240.457 126.958 C 240.489 126.340,240.489 125.327,240.457 124.708 C 240.425 124.090,240.399 124.596,240.399 125.833 M254.539 125.333 C 254.539 125.654,254.573 125.785,254.615 125.625 C 254.657 125.465,254.657 125.202,254.615 125.042 C 254.573 124.881,254.539 125.013,254.539 125.333 M255.705 125.333 C 255.705 125.654,255.740 125.785,255.782 125.625 C 255.823 125.465,255.823 125.202,255.782 125.042 C 255.740 124.881,255.705 125.013,255.705 125.333 M269.205 125.333 C 269.205 125.654,269.240 125.785,269.282 125.625 C 269.323 125.465,269.323 125.202,269.282 125.042 C 269.240 124.881,269.205 125.013,269.205 125.333 M280.045 127.333 C 280.045 127.746,280.078 127.915,280.118 127.708 C 280.157 127.502,280.157 127.165,280.118 126.958 C 280.078 126.752,280.045 126.921,280.045 127.333 M281.379 127.333 C 281.379 127.746,281.411 127.915,281.451 127.708 C 281.491 127.502,281.491 127.165,281.451 126.958 C 281.411 126.752,281.379 126.921,281.379 127.333 M225.708 128.115 C 225.869 128.157,226.131 128.157,226.292 128.115 C 226.452 128.073,226.321 128.039,226.000 128.039 C 225.679 128.039,225.548 128.073,225.708 128.115 M231.208 128.115 C 231.369 128.157,231.631 128.157,231.792 128.115 C 231.952 128.073,231.821 128.039,231.500 128.039 C 231.179 128.039,231.048 128.073,231.208 128.115 M248.375 128.115 C 248.535 128.157,248.798 128.157,248.958 128.115 C 249.119 128.073,248.987 128.039,248.667 128.039 C 248.346 128.039,248.215 128.073,248.375 128.115 M271.542 128.115 C 271.702 128.157,271.965 128.157,272.125 128.115 C 272.285 128.073,272.154 128.039,271.833 128.039 C 271.512 128.039,271.381 128.073,271.542 128.115 M276.708 128.115 C 276.869 128.157,277.131 128.157,277.292 128.115 C 277.452 128.073,277.321 128.039,277.000 128.039 C 276.679 128.039,276.548 128.073,276.708 128.115 " stroke="none" fill="#c0ccd0" fill-rule="evenodd"></path></g></svg>