<?xml version="1.0" standalone="no"?><svg xmlns="http://www.w3.org/2000/svg" viewBox="0 0 1440 320"><path fill="#273036" fill-opacity="1" d="M0,224L30,224C60,224,120,224,180,208C240,192,300,160,360,154.7C420,149,480,171,540,170.7C600,171,660,149,720,165.3C780,181,840,235,900,245.3C960,256,1020,224,1080,186.7C1140,149,1200,107,1260,74.7C1320,43,1380,21,1410,10.7L1440,0L1440,320L1410,320C1380,320,1320,320,1260,320C1200,320,1140,320,1080,320C1020,320,960,320,900,320C840,320,780,320,720,320C660,320,600,320,540,320C480,320,420,320,360,320C300,320,240,320,180,320C120,320,60,320,30,320L0,320Z"></path></svg>